# xmcd CD database file
#
# Track frame offsets:
#	150
#	13847
#	21547
#	32135
#	48556
#	55992
#	65030
#	82272
#	97742
#	109057
#	116810
#	133728
#	150005
#	182119
#	192395
#	203105
#	214195
#	226543
#	237093
#
# Disc length: 3285 seconds
#
# Revision: 0
# Processed by: cddbd v1.5.2PL0 Copyright (c) Steve Scherf et al.
# Submitted via: CDex 1.70beta2
#
DISCID=090cd313
DTITLE=SINSKE - Sound Tracks From Dance Galaxy [Disc 1]
DYEAR=2010
DGENRE=Jazz
TTITLE0=ジルに捧ぐ
TTITLE1=STORY GATE
TTITLE2=ピエロの涙
TTITLE3=捧げられた花束の行方
TTITLE4=ジゼルの覚醒
TTITLE5=ジゼルのテーマ
TTITLE6=ギャルソン達のカフェ
TTITLE7=Soul of Giselle
TTITLE8=アルトへの想い
TTITLE9=花占い
TTITLE10=狭間
TTITLE11=深海
TTITLE12=縺れた糸
TTITLE13=ジルの苦悩
TTITLE14=狂気の果てに
TTITLE15=ジゼルの叫び
TTITLE16=Run Away
TTITLE17=二人の魂はここに
TTITLE18=花占い (Trio Version)
EXTD=YEAR: 2010
EXTT0=
EXTT1=
EXTT2=
EXTT3=
EXTT4=
EXTT5=
EXTT6=
EXTT7=
EXTT8=
EXTT9=
EXTT10=
EXTT11=
EXTT12=
EXTT13=
EXTT14=
EXTT15=
EXTT16=
EXTT17=
EXTT18=
PLAYORDER=
